<svg xmlns="http://www.w3.org/2000/svg" xmlns:xlink="http://www.w3.org/1999/xlink" fill="none" viewBox="0 0 348 348"><defs><path id="reuse-0" fill="#000" fill-opacity=".8" fill-rule="evenodd" stroke-width="2" d="M26.76536 25.2239h47.71521v47.71521H26.76536z" style="font-variation-settings:normal"/><path id="reuse-1" stroke-linejoin="round" stroke-width="2" d="M50.622964 25.2239v47.71521M26.76536 49.081505h47.715208" style="font-variation-settings:normal"/><path id="reuse-2" fill="#fff" fill-opacity=".8" fill-rule="evenodd" stroke-width="1.89" d="M50.622963 25.2239h23.857603v23.857605H50.622963z" style="font-variation-settings:normal"/><path id="reuse-3" stroke-linejoin="round" stroke-width="2" d="M56.150437 25.2239v23.857605M50.622963 30.751374h23.857605M50.622963 43.55403h23.857605M68.953093 25.2239v23.857605" style="font-variation-settings:normal"/><path id="reuse-4" stroke-width="1.88976" d="M51.493736 169.41748H90.55637v38.718803H51.493736z" style="font-variation-settings:normal"/></defs><path stroke="#000" stroke-width="2" d="M5.08 5.776h336.91v337.67H5.08Z"/><path stroke="#000" stroke-width="2" d="M282.734 40.554c0-8.376 6.966-15.165 15.56-15.165 4.126 0 8.084 1.594 11 4.44 2.92 2.842 4.56 6.7 4.56 10.722 0 8.376-6.967 15.165-15.56 15.165-8.594 0-15.56-6.79-15.56-15.166z"/><g stroke="#000"><use xlink:href="#reuse-0" fill-opacity=".8" fill-rule="evenodd" stroke-width="2" style="font-variation-settings:normal" transform="translate(-6.68536 -4.4479)"/><use xlink:href="#reuse-1" stroke-linejoin="round" stroke-width="2" style="font-variation-settings:normal" transform="translate(-6.68536 -4.4479)"/><use xlink:href="#reuse-2" fill-opacity=".8" fill-rule="evenodd" stroke-width="1.89" style="font-variation-settings:normal" transform="translate(-6.68536 -4.4479)"/><use xlink:href="#reuse-3" stroke-linejoin="round" stroke-width="2" style="font-variation-settings:normal" transform="translate(-6.68536 -4.4479)"/></g><g stroke="#000"><use xlink:href="#reuse-0" fill-opacity=".8" fill-rule="evenodd" stroke-width="2" style="font-variation-settings:normal" transform="translate(58.31464 -4.4479)"/><use xlink:href="#reuse-1" stroke-linejoin="round" stroke-width="2" style="font-variation-settings:normal" transform="translate(58.31464 -4.4479)"/><use xlink:href="#reuse-2" fill-opacity=".8" fill-rule="evenodd" stroke-width="1.89" style="font-variation-settings:normal" transform="translate(34.457037 19.409705)"/><use xlink:href="#reuse-3" stroke-linejoin="round" stroke-width="2" style="font-variation-settings:normal" transform="translate(34.457037 19.409705)"/></g><g stroke="#000"><use xlink:href="#reuse-0" fill-opacity=".8" fill-rule="evenodd" stroke-width="2" style="font-variation-settings:normal" transform="translate(123.31464 -4.4479)"/><use xlink:href="#reuse-1" stroke-linejoin="round" stroke-width="2" style="font-variation-settings:normal" transform="translate(123.31464 -4.4479)"/><use xlink:href="#reuse-2" fill-opacity=".8" fill-rule="evenodd" stroke-width="1.89" style="font-variation-settings:normal" transform="translate(123.31464105 19.409705)"/><use xlink:href="#reuse-3" stroke-linejoin="round" stroke-width="2" style="font-variation-settings:normal" transform="translate(123.31464105 19.409705)"/></g><g stroke="#000"><use xlink:href="#reuse-0" fill-opacity=".8" fill-rule="evenodd" stroke-width="2" style="font-variation-settings:normal" transform="translate(188.31464 -4.4479)"/><use xlink:href="#reuse-1" stroke-linejoin="round" stroke-width="2" style="font-variation-settings:normal" transform="translate(188.31464 -4.4479)"/><use xlink:href="#reuse-2" fill-opacity=".8" fill-rule="evenodd" stroke-width="1.89" style="font-variation-settings:normal" transform="translate(164.457037 -4.4479)"/><use xlink:href="#reuse-3" stroke-linejoin="round" stroke-width="2" style="font-variation-settings:normal" transform="translate(164.457037 -4.4479)"/></g><path stroke="#000" stroke-width="1.88976" d="M100.59589 287.6926h145.87822v28.30682H100.59589z" style="font-variation-settings:normal"/><path stroke="#000" stroke-width="1.88976" d="M-106.47391 237.6926h61.99424v33.30724h-61.99424z" style="font-variation-settings:normal" transform="scale(-1 1)"/><path stroke="#000" stroke-width="1.88976" d="M240.5961 237.6926h61.99424v33.30724H240.5961z" style="font-variation-settings:normal"/><g stroke="#000" transform="translate(-.50853714)"><path stroke-width="1.88976" d="M-225.75253-241.5889h103.41799v103.41799h-103.41799z" style="font-variation-settings:normal" transform="scale(-1)"/><circle cx="144.04353" cy="159.87991" r="13.22836" stroke-linejoin="round" stroke-width="1.89"/><circle cx="-204.04352" cy="159.87991" r="13.22836" stroke-linejoin="round" stroke-width="1.89" transform="scale(-1 1)"/><circle cx="144.04353" cy="-219.87991" r="13.22836" stroke-linejoin="round" stroke-width="1.89" transform="scale(1 -1)"/><circle cx="-204.04352" cy="-219.87991" r="13.22836" stroke-linejoin="round" stroke-width="1.89" transform="scale(-1)"/></g><g stroke="#000" transform="translate(-.508535 1.1030197)"><use xlink:href="#reuse-4" stroke-width="1.88976" style="font-variation-settings:normal"/><circle cx="71.025055" cy="188.77689" r="13.22836" stroke-linejoin="round" stroke-width="1.89"/></g><g stroke="#000" transform="matrix(-1 0 0 1 347.57853 1.1030197)"><use xlink:href="#reuse-4" stroke-width="1.88976" style="font-variation-settings:normal"/><circle cx="71.025055" cy="188.77689" r="13.22836" stroke-linejoin="round" stroke-width="1.89"/></g><path stroke="#000" stroke-width="1.88976" d="M217.71324 96.644951h-88.35649c-4.17203 0-7.53105 3.358719-7.53075 7.530749.00053 4.6651.00046 9.3302.00046 13.9953h103.417v-7.53084l.00053-6.46446c.00034-4.17203-3.35871-7.530749-7.53075-7.530749z" style="font-variation-settings:normal"/><path stroke="#000" stroke-linejoin="round" stroke-width="6" d="m90.047831 182.68257 31.778169-.00001M90.047831 197.07725l31.778169-.00001M257.02217 182.68257l-31.77817-.00001M257.02217 197.07725l-31.77817-.00001M145.51674 118.171l.00004 19.9999M131.55318 118.171l.00004 19.9999M215.51674 118.171l.00004 19.9999M201.55318 118.171l.00004 19.9999" style="font-variation-settings:normal"/><rect width="39.239182" height="39.239182" x="36.906609" y="98.936218" stroke="#000" stroke-width="1.88976" ry="11.097944" style="font-variation-settings:normal"/><circle cx="56.526196" cy="118.5558" r="11.593393" stroke="#000" stroke-linejoin="round" stroke-width="2.00001"/><path stroke="#000" stroke-linejoin="round" stroke-width="2" d="M71.488609 118.5558a14.962414 14.962414 0 0 1-14.962413 14.96242 14.962414 14.962414 0 0 1-14.962414-14.96242 14.962414 14.962414 0 0 1 14.962414-14.96241 14.962414 14.962414 0 0 1 14.962413 14.96241"/><path stroke="#000" stroke-linejoin="round" stroke-width="2" d="M41.563782 118.5558h29.924827M56.526195 103.59339v29.92482M45.946171 107.97578l21.160049 21.16004M67.106217 107.97578l-21.160044 21.16004" style="font-variation-settings:normal"/></svg>